<svg width="64" height="64" viewBox="0 0 44 44" fill="none" xmlns="http://www.w3.org/2000/svg">
  <defs>
    <linearGradient id="db-grad-blue" x1="4" y1="4" x2="40" y2="40" gradientUnits="userSpaceOnUse">
      <stop offset="0%" stop-color="#38bdf8" />
      <stop offset="50%" stop-color="#2563eb" />
      <stop offset="100%" stop-color="#1e3a8a" />
    </linearGradient>
    <linearGradient id="db-grad-orange" x1="18" y1="12" x2="38" y2="34" gradientUnits="userSpaceOnUse">
      <stop offset="0%" stop-color="#fbbf24" />
      <stop offset="45%" stop-color="#ff7a00" />
      <stop offset="100%" stop-color="#ea580c" />
    </linearGradient>
    <linearGradient id="db-grad-gloss" x1="0" y1="0" x2="0" y2="44" gradientUnits="userSpaceOnUse">
      <stop offset="0%" stop-color="#ffffff" stop-opacity="0.16" />
      <stop offset="100%" stop-color="#ffffff" stop-opacity="0" />
    </linearGradient>
    <linearGradient id="db-grad-facet" x1="22" y1="8" x2="34" y2="20" gradientUnits="userSpaceOnUse">
      <stop offset="0%" stop-color="#93c5fd" />
      <stop offset="100%" stop-color="#3b82f6" />
    </linearGradient>
  </defs>
  <rect x="1" y="1" width="42" height="42" rx="11" fill="#080e23" stroke="rgba(255, 255, 255, 0.16)" stroke-width="1.2" />
  <rect x="1" y="1" width="42" height="42" rx="11" fill="url(#db-grad-gloss)" />
  <rect x="9" y="10" width="6" height="24" rx="3" fill="url(#db-grad-blue)" />
  <path d="M13 10H24C30.627 10 36 15.373 36 22C36 28.627 30.627 34 24 34H13V27.5H23C26.038 27.5 28.5 25.038 28.5 22C28.5 18.962 26.038 16.5 23 16.5H13V10Z" fill="url(#db-grad-blue)" />
  <path d="M16 16.5H23.5C26.538 16.5 29 18.962 29 22C29 25.038 26.538 27.5 23.5 27.5H16L21 22L16 16.5Z" fill="url(#db-grad-orange)" />
  <path d="M23 10L32 19L27 20L23 10Z" fill="url(#db-grad-facet)" fill-opacity="0.75" />
  <circle cx="22" cy="22" r="1.8" fill="#ffffff" />
  <circle cx="30" cy="14" r="1.2" fill="#fed7aa" />
</svg>
